<mxfile host="app.diagrams.net" modified="2023-12-26T11:45:03.774Z" agent="Mozilla/5.0 (Windows NT 10.0; Win64; x64) AppleWebKit/537.36 (KHTML, like Gecko) Chrome/120.0.0.0 Safari/537.36" etag="bt1JChgEtjMCH3uNAVNU" version="22.1.11" type="device">
  <diagram id="C5RBs43oDa-KdzZeNtuy" name="Page-1">
    <mxGraphModel dx="1434" dy="746" grid="1" gridSize="10" guides="1" tooltips="1" connect="1" arrows="1" fold="1" page="1" pageScale="1" pageWidth="827" pageHeight="1169" math="0" shadow="0">
      <root>
        <mxCell id="WIyWlLk6GJQsqaUBKTNV-0" />
        <mxCell id="WIyWlLk6GJQsqaUBKTNV-1" parent="WIyWlLk6GJQsqaUBKTNV-0" />
        <mxCell id="f2poCQof998ApuVAPwFh-9" value="" style="edgeStyle=orthogonalEdgeStyle;rounded=0;orthogonalLoop=1;jettySize=auto;html=1;" edge="1" parent="WIyWlLk6GJQsqaUBKTNV-1" source="f2poCQof998ApuVAPwFh-6" target="f2poCQof998ApuVAPwFh-8">
          <mxGeometry relative="1" as="geometry" />
        </mxCell>
        <mxCell id="f2poCQof998ApuVAPwFh-6" value="start" style="strokeWidth=2;html=1;shape=mxgraph.flowchart.start_2;whiteSpace=wrap;" vertex="1" parent="WIyWlLk6GJQsqaUBKTNV-1">
          <mxGeometry x="290" y="30" width="60" height="60" as="geometry" />
        </mxCell>
        <mxCell id="f2poCQof998ApuVAPwFh-11" value="" style="edgeStyle=orthogonalEdgeStyle;rounded=0;orthogonalLoop=1;jettySize=auto;html=1;" edge="1" parent="WIyWlLk6GJQsqaUBKTNV-1" source="f2poCQof998ApuVAPwFh-8" target="f2poCQof998ApuVAPwFh-10">
          <mxGeometry relative="1" as="geometry" />
        </mxCell>
        <mxCell id="f2poCQof998ApuVAPwFh-8" value="input array" style="shape=parallelogram;perimeter=parallelogramPerimeter;whiteSpace=wrap;html=1;fixedSize=1;strokeWidth=2;" vertex="1" parent="WIyWlLk6GJQsqaUBKTNV-1">
          <mxGeometry x="260" y="130" width="120" height="60" as="geometry" />
        </mxCell>
        <mxCell id="f2poCQof998ApuVAPwFh-13" value="" style="edgeStyle=orthogonalEdgeStyle;rounded=0;orthogonalLoop=1;jettySize=auto;html=1;" edge="1" parent="WIyWlLk6GJQsqaUBKTNV-1" source="f2poCQof998ApuVAPwFh-10" target="f2poCQof998ApuVAPwFh-12">
          <mxGeometry relative="1" as="geometry" />
        </mxCell>
        <mxCell id="f2poCQof998ApuVAPwFh-10" value="&lt;div&gt;filtered_array=[]&lt;/div&gt;&lt;div&gt;&amp;nbsp; &amp;nbsp; for string in input_array:&lt;/div&gt;" style="whiteSpace=wrap;html=1;strokeWidth=2;" vertex="1" parent="WIyWlLk6GJQsqaUBKTNV-1">
          <mxGeometry x="260" y="230" width="120" height="60" as="geometry" />
        </mxCell>
        <mxCell id="f2poCQof998ApuVAPwFh-17" value="" style="edgeStyle=orthogonalEdgeStyle;rounded=0;orthogonalLoop=1;jettySize=auto;html=1;" edge="1" parent="WIyWlLk6GJQsqaUBKTNV-1" source="f2poCQof998ApuVAPwFh-12" target="f2poCQof998ApuVAPwFh-16">
          <mxGeometry relative="1" as="geometry" />
        </mxCell>
        <mxCell id="f2poCQof998ApuVAPwFh-23" style="edgeStyle=orthogonalEdgeStyle;rounded=0;orthogonalLoop=1;jettySize=auto;html=1;exitX=0;exitY=0.5;exitDx=0;exitDy=0;entryX=0;entryY=0.5;entryDx=0;entryDy=0;" edge="1" parent="WIyWlLk6GJQsqaUBKTNV-1" source="f2poCQof998ApuVAPwFh-12" target="f2poCQof998ApuVAPwFh-10">
          <mxGeometry relative="1" as="geometry">
            <Array as="points">
              <mxPoint x="200" y="370" />
              <mxPoint x="200" y="260" />
            </Array>
          </mxGeometry>
        </mxCell>
        <mxCell id="f2poCQof998ApuVAPwFh-12" value="if len(string) &amp;lt;=3:" style="rhombus;whiteSpace=wrap;html=1;strokeWidth=2;" vertex="1" parent="WIyWlLk6GJQsqaUBKTNV-1">
          <mxGeometry x="255" y="330" width="130" height="80" as="geometry" />
        </mxCell>
        <mxCell id="f2poCQof998ApuVAPwFh-16" value="filtered_array.append(string)" style="whiteSpace=wrap;html=1;strokeWidth=2;" vertex="1" parent="WIyWlLk6GJQsqaUBKTNV-1">
          <mxGeometry x="240" y="450" width="160" height="80" as="geometry" />
        </mxCell>
        <mxCell id="f2poCQof998ApuVAPwFh-18" value="print(filtered_strings)" style="strokeWidth=2;html=1;shape=mxgraph.flowchart.document2;whiteSpace=wrap;size=0.25;" vertex="1" parent="WIyWlLk6GJQsqaUBKTNV-1">
          <mxGeometry x="240" y="580" width="160" height="60" as="geometry" />
        </mxCell>
        <mxCell id="f2poCQof998ApuVAPwFh-19" style="edgeStyle=orthogonalEdgeStyle;rounded=0;orthogonalLoop=1;jettySize=auto;html=1;exitX=0.5;exitY=1;exitDx=0;exitDy=0;entryX=0.5;entryY=0;entryDx=0;entryDy=0;entryPerimeter=0;" edge="1" parent="WIyWlLk6GJQsqaUBKTNV-1" source="f2poCQof998ApuVAPwFh-16" target="f2poCQof998ApuVAPwFh-18">
          <mxGeometry relative="1" as="geometry" />
        </mxCell>
        <mxCell id="f2poCQof998ApuVAPwFh-21" value="нет" style="text;html=1;strokeColor=none;fillColor=none;align=center;verticalAlign=middle;whiteSpace=wrap;rounded=0;" vertex="1" parent="WIyWlLk6GJQsqaUBKTNV-1">
          <mxGeometry x="190" y="340" width="60" height="30" as="geometry" />
        </mxCell>
        <mxCell id="f2poCQof998ApuVAPwFh-22" value="да" style="text;html=1;strokeColor=none;fillColor=none;align=center;verticalAlign=middle;whiteSpace=wrap;rounded=0;" vertex="1" parent="WIyWlLk6GJQsqaUBKTNV-1">
          <mxGeometry x="255" y="410" width="60" height="30" as="geometry" />
        </mxCell>
      </root>
    </mxGraphModel>
  </diagram>
</mxfile>
